<svg xmlns="http://www.w3.org/2000/svg" xmlns:xlink="http://www.w3.org/1999/xlink" width="20" height="20" preserveAspectRatio="xMidYMid meet" viewBox="0 0 20 20" style="-ms-transform: rotate(360deg); -webkit-transform: rotate(360deg); transform: rotate(360deg);"><path d="M2 1h16c.55 0 1 .45 1 1v16l-18-.02V2c0-.55.45-1 1-1zm4 1L4 5h1l2-3H6zm4 0H9L7 5h1zm3 0h-1l-2 3h1zm3 0h-1l-2 3h1zm1 14V6H3v10h14zM8 7l6 4l-6 4V7z" fill="#626262"/><rect x="0" y="0" width="20" height="20" fill="rgba(0, 0, 0, 0)" /></svg>