<svg xmlns="http://www.w3.org/2000/svg" xmlns:xlink="http://www.w3.org/1999/xlink" width="24" height="24" preserveAspectRatio="xMidYMid meet" viewBox="0 0 24 24" style="-ms-transform: rotate(360deg); -webkit-transform: rotate(360deg); transform: rotate(360deg);"><path d="M20 2H10c-1.103 0-2 .897-2 2v4H4c-1.103 0-2 .897-2 2v10c0 1.103.897 2 2 2h10c1.103 0 2-.897 2-2v-4h4c1.103 0 2-.897 2-2V4c0-1.103-.897-2-2-2zM4 20V10h10l.002 10H4zm16-6h-4v-4c0-1.103-.897-2-2-2h-4V4h10v10z" fill="#626262"/><rect x="0" y="0" width="24" height="24" fill="rgba(0, 0, 0, 0)" /></svg>
