<svg xmlns="http://www.w3.org/2000/svg" xmlns:xlink="http://www.w3.org/1999/xlink" width="20" height="20" preserveAspectRatio="xMidYMid meet" viewBox="0 0 64 64" style="-ms-transform: rotate(360deg); -webkit-transform: rotate(360deg); transform: rotate(360deg);"><path d="M62 23.012H39.082L32 2l-7.08 21.012H2L20.541 36l-7.082 21.01L32 44.023L50.541 57.01L43.459 36L62 23.012z" fill="#626262"/><path d="M46.234 20.344L50.16 8.857l-10.439 7.211l1.461 4.276z" fill="#626262"/><path d="M27.912 50.035L32 62l4.09-11.965L32 47.211z" fill="#626262"/><path d="M50.68 34.307l-3.825 2.642l1.624 4.752h12.904z" fill="#626262"/><path d="M24.277 16.068L13.84 8.857l3.926 11.487h5.052z" fill="#626262"/><path d="M13.32 34.307L2.617 41.701H15.52l1.625-4.752z" fill="#626262"/><rect x="0" y="0" width="64" height="64" fill="rgba(0, 0, 0, 0)" /></svg>