<svg xmlns="http://www.w3.org/2000/svg" xmlns:xlink="http://www.w3.org/1999/xlink" width="24" height="24" preserveAspectRatio="xMidYMid meet" viewBox="0 0 24 24" style="-ms-transform: rotate(360deg); -webkit-transform: rotate(360deg); transform: rotate(360deg);"><path d="M20.707 5.826l-3.535-3.533a.999.999 0 0 0-1.408-.006L7.096 10.82a1.01 1.01 0 0 0-.273.488l-1.024 4.437L4 18h2.828l1.142-1.129l3.588-.828c.18-.042.345-.133.477-.262l8.667-8.535a1 1 0 0 0 .005-1.42zm-9.369 7.833l-2.121-2.12l7.243-7.131l2.12 2.12l-7.242 7.131zM4 20h16v2H4z" fill="#626262"/><rect x="0" y="0" width="24" height="24" fill="rgba(0, 0, 0, 0)" /></svg>