<svg xmlns="http://www.w3.org/2000/svg" xmlns:xlink="http://www.w3.org/1999/xlink" width="16" height="16" preserveAspectRatio="xMidYMid meet" viewBox="0 0 16 16" style="-ms-transform: rotate(360deg); -webkit-transform: rotate(360deg); transform: rotate(360deg);"><g fill="#626262"><path fill-rule="evenodd" d="M14.002 2h-12a1 1 0 0 0-1 1v10a1 1 0 0 0 1 1h12a1 1 0 0 0 1-1V3a1 1 0 0 0-1-1zm-12-1a2 2 0 0 0-2 2v10a2 2 0 0 0 2 2h12a2 2 0 0 0 2-2V3a2 2 0 0 0-2-2h-12z"/><path d="M10.648 7.646a.5.5 0 0 1 .577-.093L15.002 9.5V14h-14v-2l2.646-2.354a.5.5 0 0 1 .63-.062l2.66 1.773l3.71-3.71z"/><path fill-rule="evenodd" d="M4.502 7a1.5 1.5 0 1 0 0-3a1.5 1.5 0 0 0 0 3z"/></g><rect x="0" y="0" width="16" height="16" fill="rgba(0, 0, 0, 0)" /></svg>