<svg xmlns="http://www.w3.org/2000/svg" xmlns:xlink="http://www.w3.org/1999/xlink" width="20" height="20" preserveAspectRatio="xMidYMid meet" viewBox="0 0 16 16" style="-ms-transform: rotate(360deg); -webkit-transform: rotate(360deg); transform: rotate(360deg);"><path fill-rule="evenodd" d="M2 4a1 1 0 1 0 0-2a1 1 0 0 0 0 2zm3.75-1.5a.75.75 0 0 0 0 1.5h8.5a.75.75 0 0 0 0-1.5h-8.5zm0 5a.75.75 0 0 0 0 1.5h8.5a.75.75 0 0 0 0-1.5h-8.5zm0 5a.75.75 0 0 0 0 1.5h8.5a.75.75 0 0 0 0-1.5h-8.5zM3 8a1 1 0 1 1-2 0a1 1 0 0 1 2 0zm-1 6a1 1 0 1 0 0-2a1 1 0 0 0 0 2z" fill="#626262"/><rect x="0" y="0" width="16" height="16" fill="rgba(0, 0, 0, 0)" /></svg>