<svg xmlns="http://www.w3.org/2000/svg" xmlns:xlink="http://www.w3.org/1999/xlink" width="24" height="24" preserveAspectRatio="xMidYMid meet" viewBox="0 0 24 24" style="-ms-transform: rotate(360deg); -webkit-transform: rotate(360deg); transform: rotate(360deg);"><path d="M18.562 14.634L14 12l4.562-2.634a1 1 0 0 0-1-1.732L13 10.268V5a1 1 0 0 0-2 0v5.268L6.438 7.634a1 1 0 0 0-1 1.732L10 12l-4.562 2.634a1 1 0 0 0 1 1.732L11 13.732V19a1 1 0 0 0 2 0v-5.268l4.562 2.634a1 1 0 0 0 1-1.732z" fill="#626262"/><rect x="0" y="0" width="24" height="24" fill="rgba(0, 0, 0, 0)" /></svg>