<svg xmlns="http://www.w3.org/2000/svg" xmlns:xlink="http://www.w3.org/1999/xlink" width="20" height="20" preserveAspectRatio="xMidYMid meet" viewBox="0 0 20 20" style="-ms-transform: rotate(360deg); -webkit-transform: rotate(360deg); transform: rotate(360deg);"><path d="M0 4c0-1.1.9-2 2-2h16a2 2 0 0 1 2 2v12a2 2 0 0 1-2 2H2a2 2 0 0 1-2-2V4zm6 0v12h8V4H6zM2 5v2h2V5H2zm0 4v2h2V9H2zm0 4v2h2v-2H2zm14-8v2h2V5h-2zm0 4v2h2V9h-2zm0 4v2h2v-2h-2zM8 7l5 3l-5 3V7z" fill="#626262"/><rect x="0" y="0" width="20" height="20" fill="rgba(0, 0, 0, 0)" /></svg>