<svg xmlns="http://www.w3.org/2000/svg" xmlns:xlink="http://www.w3.org/1999/xlink" width="24" height="24" preserveAspectRatio="xMidYMid meet" viewBox="0 0 24 24" style="-ms-transform: rotate(360deg); -webkit-transform: rotate(360deg); transform: rotate(360deg);"><path d="M21 3a1 1 0 0 1 1 1v14a1 1 0 0 1-1 1H6.455L2 22.5V4a1 1 0 0 1 1-1h18zm-1 2H4v13.385L5.763 17H20V5zm-9.485 2.412l.447.688c-1.668.903-1.639 2.352-1.639 2.664c.155-.02.318-.024.48-.009a1.761 1.761 0 0 1 1.613 1.745a1.75 1.75 0 0 1-1.75 1.75c-.537 0-1.05-.245-1.374-.59c-.515-.546-.792-1.16-.792-2.155c0-1.75 1.228-3.318 3.015-4.093zm5 0l.447.688c-1.668.903-1.639 2.352-1.639 2.664c.155-.02.318-.024.48-.009a1.761 1.761 0 0 1 1.613 1.745a1.75 1.75 0 0 1-1.75 1.75c-.537 0-1.05-.245-1.374-.59c-.515-.546-.792-1.16-.792-2.155c0-1.75 1.228-3.318 3.015-4.093z" fill="#626262"/><rect x="0" y="0" width="24" height="24" fill="rgba(0, 0, 0, 0)" /></svg>