<svg xmlns="http://www.w3.org/2000/svg" xmlns:xlink="http://www.w3.org/1999/xlink" width="24" height="24" preserveAspectRatio="xMidYMid meet" viewBox="0 0 24 24" style="-ms-transform: rotate(360deg); -webkit-transform: rotate(360deg); transform: rotate(360deg);"><path d="M20 11V5c0-1.103-.897-2-2-2h-3a1 1 0 0 0-1-1H8a1 1 0 0 0-1 1H4c-1.103 0-2 .897-2 2v13c0 1.103.897 2 2 2h7c0 1.103.897 2 2 2h7c1.103 0 2-.897 2-2v-7c0-1.103-.897-2-2-2zm-9 2v5H4V5h3v2h8V5h3v6h-5c-1.103 0-2 .897-2 2zm2 7v-7h7l.001 7H13z" fill="#626262"/><rect x="0" y="0" width="24" height="24" fill="rgba(0, 0, 0, 0)" /></svg>