<svg xmlns="http://www.w3.org/2000/svg" xmlns:xlink="http://www.w3.org/1999/xlink" width="24" height="24" preserveAspectRatio="xMidYMid meet" viewBox="0 0 36 36" style="-ms-transform: rotate(360deg); -webkit-transform: rotate(360deg); transform: rotate(360deg);"><path d="M18.37 11.17a6.79 6.79 0 0 0-2.37.43l8.8 8.8a6.78 6.78 0 0 0 .43-2.4a6.86 6.86 0 0 0-6.86-6.83z" class="clr-i-solid clr-i-solid-path-1" fill="#626262"/><path d="M34.29 17.53c-3.37-6.23-9.28-10-15.82-10a16.82 16.82 0 0 0-5.24.85L14.84 10a14.78 14.78 0 0 1 3.63-.47c5.63 0 10.75 3.14 13.8 8.43a17.75 17.75 0 0 1-4.37 5.1l1.42 1.42a19.93 19.93 0 0 0 5-6l.26-.48z" class="clr-i-solid clr-i-solid-path-2" fill="#626262"/><path d="M4.87 5.78l4.46 4.46a19.52 19.52 0 0 0-6.69 7.29l-.26.47l.26.48c3.37 6.23 9.28 10 15.82 10a16.93 16.93 0 0 0 7.37-1.69l5 5l1.75-1.5l-26-26zm8.3 8.3a6.85 6.85 0 0 0 9.55 9.55l1.6 1.6a14.91 14.91 0 0 1-5.86 1.2c-5.63 0-10.75-3.14-13.8-8.43a17.29 17.29 0 0 1 6.12-6.3z" class="clr-i-solid clr-i-solid-path-3" fill="#626262"/><rect x="0" y="0" width="36" height="36" fill="rgba(0, 0, 0, 0)" /></svg>