<svg xmlns="http://www.w3.org/2000/svg" xmlns:xlink="http://www.w3.org/1999/xlink" width="24" height="24" preserveAspectRatio="xMidYMid meet" viewBox="0 0 24 24" style="-ms-transform: rotate(360deg); -webkit-transform: rotate(360deg); transform: rotate(360deg);"><path d="M8.465 11.293c1.133-1.133 3.109-1.133 4.242 0l.707.707l1.414-1.414l-.707-.707c-.943-.944-2.199-1.465-3.535-1.465s-2.592.521-3.535 1.465L4.929 12a5.008 5.008 0 0 0 0 7.071a4.983 4.983 0 0 0 3.535 1.462A4.982 4.982 0 0 0 12 19.071l.707-.707l-1.414-1.414l-.707.707a3.007 3.007 0 0 1-4.243 0a3.005 3.005 0 0 1 0-4.243l2.122-2.121z" fill="#626262"/><path d="M12 4.929l-.707.707l1.414 1.414l.707-.707a3.007 3.007 0 0 1 4.243 0a3.005 3.005 0 0 1 0 4.243l-2.122 2.121c-1.133 1.133-3.109 1.133-4.242 0L10.586 12l-1.414 1.414l.707.707c.943.944 2.199 1.465 3.535 1.465s2.592-.521 3.535-1.465L19.071 12a5.008 5.008 0 0 0 0-7.071a5.006 5.006 0 0 0-7.071 0z" fill="#626262"/><rect x="0" y="0" width="24" height="24" fill="rgba(0, 0, 0, 0)" /></svg>